# xmcd
#
# Track frame offsets: 
#        150
#        12165
#        31260
#        50050
#        69455
#        86525
#        101587
#        116430
#        132747
#        146292
#
# Disc length: 2146 seconds
#
# Revision: 4
# Processed by: cddbd v1.5.2PL0 Copyright (c) Steve Scherf et al.
# Submitted via: ExactAudioCopy v0.99pb3
#
DISCID=8408600a
DTITLE=Tanya Tucker - Can't Run From Yourself
DYEAR=1992
DGENRE=Country
TTITLE0=It's A Little Too Late
TTITLE1=Can't Run From Yourself
TTITLE2=Two Sparrows In A Hurricane
TTITLE3=Don't Let My Heart Be The Last To Know
TTITLE4=Tell Me About It (Duet with Delbert McClinton)
TTITLE5=I've Learned To Live
TTITLE6=What Do They Know
TTITLE7=Rainbow Rider
TTITLE8=Half The Moon
TTITLE9=Danger Ahead
EXTD=YEAR: 1992
EXTT0=
EXTT1=
EXTT2=
EXTT3=
EXTT4=
EXTT5=
EXTT6=
EXTT7=
EXTT8=
EXTT9=
PLAYORDER=
